<mxfile host="app.diagrams.net" modified="2022-05-03T15:46:38.368Z" agent="5.0 (X11; Linux x86_64) AppleWebKit/537.36 (KHTML, like Gecko) Chrome/99.0.4844.82 Safari/537.36" etag="c00QDbIwDpeXhS33U-Xf" version="17.4.5" type="github">
  <diagram id="R2lEEEUBdFMjLlhIrx00" name="Page-1">
    <mxGraphModel dx="714" dy="421" grid="0" gridSize="10" guides="1" tooltips="1" connect="1" arrows="1" fold="1" page="1" pageScale="1" pageWidth="850" pageHeight="1100" background="#F1FAEE" math="0" shadow="0" extFonts="Permanent Marker^https://fonts.googleapis.com/css?family=Permanent+Marker">
      <root>
        <mxCell id="0" />
        <mxCell id="1" parent="0" />
        <mxCell id="g1o5wDydBx8oVk8ByclE-10" value="User" style="html=1;fillColor=#A8DADC;strokeColor=#457B9D;fontColor=#1D3557;" vertex="1" parent="1">
          <mxGeometry x="247" y="246" width="65" height="36" as="geometry" />
        </mxCell>
        <mxCell id="g1o5wDydBx8oVk8ByclE-11" value="User" style="html=1;fillColor=#A8DADC;strokeColor=#457B9D;fontColor=#1D3557;" vertex="1" parent="1">
          <mxGeometry x="550" y="252" width="62" height="36" as="geometry" />
        </mxCell>
        <mxCell id="g1o5wDydBx8oVk8ByclE-12" value="userid" style="ellipse;whiteSpace=wrap;html=1;rounded=0;sketch=0;fontColor=#1D3557;strokeColor=#457B9D;fillColor=#A8DADC;" vertex="1" parent="1">
          <mxGeometry x="127" y="159" width="62" height="24" as="geometry" />
        </mxCell>
        <mxCell id="g1o5wDydBx8oVk8ByclE-13" value="username" style="ellipse;whiteSpace=wrap;html=1;rounded=0;sketch=0;fontColor=#1D3557;strokeColor=#457B9D;fillColor=#A8DADC;" vertex="1" parent="1">
          <mxGeometry x="199" y="161" width="72" height="24" as="geometry" />
        </mxCell>
        <mxCell id="g1o5wDydBx8oVk8ByclE-14" value="tel" style="ellipse;whiteSpace=wrap;html=1;rounded=0;sketch=0;fontColor=#1D3557;strokeColor=#457B9D;fillColor=#A8DADC;" vertex="1" parent="1">
          <mxGeometry x="290" y="161" width="47" height="24" as="geometry" />
        </mxCell>
        <mxCell id="g1o5wDydBx8oVk8ByclE-15" value="address" style="ellipse;whiteSpace=wrap;html=1;rounded=0;sketch=0;fontColor=#1D3557;strokeColor=#457B9D;fillColor=#A8DADC;" vertex="1" parent="1">
          <mxGeometry x="346" y="161" width="69" height="24" as="geometry" />
        </mxCell>
        <mxCell id="g1o5wDydBx8oVk8ByclE-16" value="sex" style="ellipse;whiteSpace=wrap;html=1;rounded=0;sketch=0;fontColor=#1D3557;strokeColor=#457B9D;fillColor=#A8DADC;" vertex="1" parent="1">
          <mxGeometry x="230" y="201" width="47" height="24" as="geometry" />
        </mxCell>
        <mxCell id="g1o5wDydBx8oVk8ByclE-17" value="avatar" style="ellipse;whiteSpace=wrap;html=1;rounded=0;sketch=0;fontColor=#1D3557;strokeColor=#457B9D;fillColor=#A8DADC;" vertex="1" parent="1">
          <mxGeometry x="296" y="201" width="54" height="24" as="geometry" />
        </mxCell>
        <mxCell id="g1o5wDydBx8oVk8ByclE-18" value="regtime" style="ellipse;whiteSpace=wrap;html=1;rounded=0;sketch=0;fontColor=#1D3557;strokeColor=#457B9D;fillColor=#A8DADC;" vertex="1" parent="1">
          <mxGeometry x="95" y="231" width="72" height="24" as="geometry" />
        </mxCell>
        <mxCell id="g1o5wDydBx8oVk8ByclE-19" value="onlinestatus" style="ellipse;whiteSpace=wrap;html=1;rounded=0;sketch=0;fontColor=#1D3557;strokeColor=#457B9D;fillColor=#A8DADC;" vertex="1" parent="1">
          <mxGeometry x="78" y="284" width="92" height="24" as="geometry" />
        </mxCell>
        <mxCell id="g1o5wDydBx8oVk8ByclE-20" value="userstatus" style="ellipse;whiteSpace=wrap;html=1;rounded=0;sketch=0;fontColor=#1D3557;strokeColor=#457B9D;fillColor=#A8DADC;" vertex="1" parent="1">
          <mxGeometry x="350" y="255" width="69" height="24" as="geometry" />
        </mxCell>
      </root>
    </mxGraphModel>
  </diagram>
</mxfile>
